<mxfile host="app.diagrams.net" agent="Mozilla/5.0 (Windows NT 10.0; Win64; x64) AppleWebKit/537.36 (KHTML, like Gecko) Chrome/126.0.0.0 Safari/537.36" version="24.7.15">
  <diagram name="第 1 页" id="Y2cfiwyhvstEtxT1_A8s">
    <mxGraphModel dx="3363" dy="1036" grid="1" gridSize="10" guides="1" tooltips="1" connect="1" arrows="1" fold="1" page="1" pageScale="1" pageWidth="827" pageHeight="1169" math="0" shadow="0">
      <root>
        <mxCell id="0" />
        <mxCell id="1" parent="0" />
        <mxCell id="Os20RsgYe2a4jPq89aU4-10" value="移动云平台" style="shape=umlLifeline;perimeter=lifelinePerimeter;whiteSpace=wrap;html=1;container=0;dropTarget=0;collapsible=0;recursiveResize=0;outlineConnect=0;portConstraint=eastwest;newEdgeStyle={&quot;edgeStyle&quot;:&quot;elbowEdgeStyle&quot;,&quot;elbow&quot;:&quot;vertical&quot;,&quot;curved&quot;:0,&quot;rounded&quot;:0};" parent="1" vertex="1">
          <mxGeometry x="-219" y="60" width="122" height="940" as="geometry" />
        </mxCell>
        <mxCell id="DhiFU4VPr3CxJKBpV4ug-6" value="数据库" style="shape=umlLifeline;perimeter=lifelinePerimeter;whiteSpace=wrap;html=1;container=0;dropTarget=0;collapsible=0;recursiveResize=0;outlineConnect=0;portConstraint=eastwest;newEdgeStyle={&quot;edgeStyle&quot;:&quot;elbowEdgeStyle&quot;,&quot;elbow&quot;:&quot;vertical&quot;,&quot;curved&quot;:0,&quot;rounded&quot;:0};" parent="1" vertex="1">
          <mxGeometry x="-454" y="60" width="125" height="940" as="geometry" />
        </mxCell>
        <mxCell id="EFkXknBgCxwWWoDzn0F4-6" value="" style="endArrow=classic;html=1;rounded=0;" parent="DhiFU4VPr3CxJKBpV4ug-6" edge="1">
          <mxGeometry width="50" height="50" relative="1" as="geometry">
            <mxPoint x="-218" y="68" as="sourcePoint" />
            <mxPoint x="55" y="68" as="targetPoint" />
          </mxGeometry>
        </mxCell>
        <mxCell id="EFkXknBgCxwWWoDzn0F4-7" value="&lt;div style=&quot;text-align: left;&quot;&gt;&lt;span style=&quot;font-size: 12px;&quot;&gt;查询sim卡列表&lt;/span&gt;&lt;/div&gt;" style="edgeLabel;html=1;align=center;verticalAlign=middle;resizable=0;points=[];" parent="EFkXknBgCxwWWoDzn0F4-6" vertex="1" connectable="0">
          <mxGeometry x="-0.1703" y="2" relative="1" as="geometry">
            <mxPoint x="25" as="offset" />
          </mxGeometry>
        </mxCell>
        <mxCell id="EFkXknBgCxwWWoDzn0F4-8" value="返回（sim卡信息、绑定车辆信息、会员到期情况）" style="html=1;verticalAlign=bottom;endArrow=open;dashed=1;endSize=8;edgeStyle=elbowEdgeStyle;elbow=vertical;curved=0;rounded=0;" parent="DhiFU4VPr3CxJKBpV4ug-6" edge="1">
          <mxGeometry relative="1" as="geometry">
            <mxPoint x="-220" y="109" as="targetPoint" />
            <Array as="points" />
            <mxPoint x="62" y="109" as="sourcePoint" />
            <mxPoint as="offset" />
          </mxGeometry>
        </mxCell>
        <mxCell id="EFkXknBgCxwWWoDzn0F4-5" value="" style="html=1;points=[];perimeter=orthogonalPerimeter;outlineConnect=0;targetShapes=umlLifeline;portConstraint=eastwest;newEdgeStyle={&quot;edgeStyle&quot;:&quot;elbowEdgeStyle&quot;,&quot;elbow&quot;:&quot;vertical&quot;,&quot;curved&quot;:0,&quot;rounded&quot;:0};" parent="DhiFU4VPr3CxJKBpV4ug-6" vertex="1">
          <mxGeometry x="56" y="47" width="10" height="84" as="geometry" />
        </mxCell>
        <mxCell id="Os20RsgYe2a4jPq89aU4-4" value="管理平台" style="shape=umlLifeline;perimeter=lifelinePerimeter;whiteSpace=wrap;html=1;container=0;dropTarget=0;collapsible=0;recursiveResize=0;outlineConnect=0;portConstraint=eastwest;newEdgeStyle={&quot;edgeStyle&quot;:&quot;elbowEdgeStyle&quot;,&quot;elbow&quot;:&quot;vertical&quot;,&quot;curved&quot;:0,&quot;rounded&quot;:0};" parent="1" vertex="1">
          <mxGeometry x="-729" y="60" width="100" height="940" as="geometry" />
        </mxCell>
        <mxCell id="DhiFU4VPr3CxJKBpV4ug-8" value="" style="html=1;points=[];perimeter=orthogonalPerimeter;outlineConnect=0;targetShapes=umlLifeline;portConstraint=eastwest;newEdgeStyle={&quot;edgeStyle&quot;:&quot;elbowEdgeStyle&quot;,&quot;elbow&quot;:&quot;vertical&quot;,&quot;curved&quot;:0,&quot;rounded&quot;:0};" parent="Os20RsgYe2a4jPq89aU4-4" vertex="1">
          <mxGeometry x="45" y="57" width="10" height="70" as="geometry" />
        </mxCell>
        <mxCell id="3o7O3v3yB-NyVa1zuSBE-20" value="" style="html=1;points=[];perimeter=orthogonalPerimeter;outlineConnect=0;targetShapes=umlLifeline;portConstraint=eastwest;newEdgeStyle={&quot;edgeStyle&quot;:&quot;elbowEdgeStyle&quot;,&quot;elbow&quot;:&quot;vertical&quot;,&quot;curved&quot;:0,&quot;rounded&quot;:0};" vertex="1" parent="Os20RsgYe2a4jPq89aU4-4">
          <mxGeometry x="45" y="149" width="10" height="292" as="geometry" />
        </mxCell>
        <mxCell id="DhiFU4VPr3CxJKBpV4ug-18" value="" style="endArrow=classic;html=1;rounded=0;" parent="1" edge="1">
          <mxGeometry width="50" height="50" relative="1" as="geometry">
            <mxPoint x="-669" y="763" as="sourcePoint" />
            <mxPoint x="-399" y="763" as="targetPoint" />
          </mxGeometry>
        </mxCell>
        <mxCell id="DhiFU4VPr3CxJKBpV4ug-19" value="&lt;div style=&quot;text-align: left;&quot;&gt;&lt;span style=&quot;font-size: 12px;&quot;&gt;查询sim卡当月流量是否&lt;br&gt;&lt;/span&gt;&lt;div&gt;&lt;span style=&quot;font-size: 12px;&quot;&gt;&amp;nbsp;&amp;gt; 70M&amp;nbsp; 进入预警池&lt;/span&gt;&lt;/div&gt;&lt;/div&gt;&lt;div style=&quot;text-align: left;&quot;&gt;&lt;span style=&quot;font-size: 12px;&quot;&gt;&amp;nbsp;&lt;/span&gt;&lt;/div&gt;" style="edgeLabel;html=1;align=center;verticalAlign=middle;resizable=0;points=[];" parent="DhiFU4VPr3CxJKBpV4ug-18" vertex="1" connectable="0">
          <mxGeometry x="-0.1703" y="2" relative="1" as="geometry">
            <mxPoint x="25" as="offset" />
          </mxGeometry>
        </mxCell>
        <mxCell id="DhiFU4VPr3CxJKBpV4ug-20" value="返回" style="html=1;verticalAlign=bottom;endArrow=open;dashed=1;endSize=8;edgeStyle=elbowEdgeStyle;elbow=vertical;curved=0;rounded=0;" parent="1" edge="1">
          <mxGeometry relative="1" as="geometry">
            <mxPoint x="-669" y="793" as="targetPoint" />
            <Array as="points" />
            <mxPoint x="-399" y="793" as="sourcePoint" />
            <mxPoint as="offset" />
          </mxGeometry>
        </mxCell>
        <mxCell id="DhiFU4VPr3CxJKBpV4ug-17" value="" style="html=1;points=[];perimeter=orthogonalPerimeter;outlineConnect=0;targetShapes=umlLifeline;portConstraint=eastwest;newEdgeStyle={&quot;edgeStyle&quot;:&quot;elbowEdgeStyle&quot;,&quot;elbow&quot;:&quot;vertical&quot;,&quot;curved&quot;:0,&quot;rounded&quot;:0};" parent="1" vertex="1">
          <mxGeometry x="-397" y="759" width="10" height="40" as="geometry" />
        </mxCell>
        <mxCell id="3o7O3v3yB-NyVa1zuSBE-1" value="进一步需求：后续业务要统计每日gps数据，以及日志数据所需要的大小，在需要控制的时候， 可以关闭日志，保证用户的业务功能" style="shape=note;whiteSpace=wrap;html=1;backgroundOutline=1;darkOpacity=0.05;align=left;verticalAlign=bottom;" vertex="1" parent="1">
          <mxGeometry x="-1140" y="220" width="310" height="80" as="geometry" />
        </mxCell>
        <mxCell id="3o7O3v3yB-NyVa1zuSBE-2" value="" style="endArrow=classic;html=1;rounded=0;" edge="1" parent="1">
          <mxGeometry width="50" height="50" relative="1" as="geometry">
            <mxPoint x="-668" y="832.1700000000001" as="sourcePoint" />
            <mxPoint x="-169" y="834" as="targetPoint" />
          </mxGeometry>
        </mxCell>
        <mxCell id="3o7O3v3yB-NyVa1zuSBE-3" value="&lt;div style=&quot;text-align: left;&quot;&gt;&lt;span style=&quot;font-size: 12px;&quot;&gt;api: 批量查询等待保号、保号状态的sim的真实状态&lt;/span&gt;&lt;/div&gt;" style="edgeLabel;html=1;align=center;verticalAlign=middle;resizable=0;points=[];" vertex="1" connectable="0" parent="3o7O3v3yB-NyVa1zuSBE-2">
          <mxGeometry x="-0.1703" y="2" relative="1" as="geometry">
            <mxPoint x="25" as="offset" />
          </mxGeometry>
        </mxCell>
        <mxCell id="3o7O3v3yB-NyVa1zuSBE-4" value="" style="html=1;points=[];perimeter=orthogonalPerimeter;outlineConnect=0;targetShapes=umlLifeline;portConstraint=eastwest;newEdgeStyle={&quot;edgeStyle&quot;:&quot;elbowEdgeStyle&quot;,&quot;elbow&quot;:&quot;vertical&quot;,&quot;curved&quot;:0,&quot;rounded&quot;:0};" vertex="1" parent="1">
          <mxGeometry x="-162" y="826" width="10" height="58" as="geometry" />
        </mxCell>
        <mxCell id="3o7O3v3yB-NyVa1zuSBE-5" value="返回" style="html=1;verticalAlign=bottom;endArrow=open;dashed=1;endSize=8;edgeStyle=elbowEdgeStyle;elbow=vertical;curved=0;rounded=0;" edge="1" parent="1">
          <mxGeometry relative="1" as="geometry">
            <mxPoint x="-669" y="873.3299999999999" as="targetPoint" />
            <Array as="points" />
            <mxPoint x="-169" y="874" as="sourcePoint" />
            <mxPoint as="offset" />
          </mxGeometry>
        </mxCell>
        <mxCell id="3o7O3v3yB-NyVa1zuSBE-6" value="" style="html=1;points=[];perimeter=orthogonalPerimeter;outlineConnect=0;targetShapes=umlLifeline;portConstraint=eastwest;newEdgeStyle={&quot;edgeStyle&quot;:&quot;elbowEdgeStyle&quot;,&quot;elbow&quot;:&quot;vertical&quot;,&quot;curved&quot;:0,&quot;rounded&quot;:0};" vertex="1" parent="1">
          <mxGeometry x="-397" y="882" width="10" height="70" as="geometry" />
        </mxCell>
        <mxCell id="3o7O3v3yB-NyVa1zuSBE-7" value="" style="endArrow=classic;html=1;rounded=0;" edge="1" parent="1">
          <mxGeometry width="50" height="50" relative="1" as="geometry">
            <mxPoint x="-666" y="902.1700000000001" as="sourcePoint" />
            <mxPoint x="-396" y="902" as="targetPoint" />
          </mxGeometry>
        </mxCell>
        <mxCell id="3o7O3v3yB-NyVa1zuSBE-8" value="&lt;div style=&quot;text-align: left;&quot;&gt;&lt;span style=&quot;font-size: 12px;&quot;&gt;更新数据库&lt;/span&gt;&lt;/div&gt;" style="edgeLabel;html=1;align=center;verticalAlign=middle;resizable=0;points=[];" vertex="1" connectable="0" parent="3o7O3v3yB-NyVa1zuSBE-7">
          <mxGeometry x="-0.1703" y="2" relative="1" as="geometry">
            <mxPoint x="25" as="offset" />
          </mxGeometry>
        </mxCell>
        <mxCell id="3o7O3v3yB-NyVa1zuSBE-10" value="返回" style="html=1;verticalAlign=bottom;endArrow=open;dashed=1;endSize=8;edgeStyle=elbowEdgeStyle;elbow=vertical;curved=0;rounded=0;" edge="1" parent="1">
          <mxGeometry relative="1" as="geometry">
            <mxPoint x="-666" y="942.3299999999999" as="targetPoint" />
            <Array as="points" />
            <mxPoint x="-396" y="942" as="sourcePoint" />
            <mxPoint as="offset" />
          </mxGeometry>
        </mxCell>
        <mxCell id="3o7O3v3yB-NyVa1zuSBE-11" value="定时任务：&lt;br&gt;时间：每天凌晨2点&lt;br&gt;动作：sim保号" style="html=1;align=left;spacingLeft=2;endArrow=block;rounded=0;edgeStyle=orthogonalEdgeStyle;curved=0;rounded=0;fontFamily=Helvetica;fontSize=12;fontColor=default;" edge="1" parent="1">
          <mxGeometry relative="1" as="geometry">
            <mxPoint x="-672" y="215" as="sourcePoint" />
            <Array as="points">
              <mxPoint x="-642" y="215" />
              <mxPoint x="-642" y="275" />
            </Array>
            <mxPoint x="-674" y="275" as="targetPoint" />
          </mxGeometry>
        </mxCell>
        <mxCell id="3o7O3v3yB-NyVa1zuSBE-12" value="获取卡状态" style="shape=umlFrame;whiteSpace=wrap;html=1;pointerEvents=0;sketch=0;strokeColor=default;align=center;verticalAlign=middle;fontFamily=Helvetica;fontSize=12;fontColor=default;fillColor=default;" vertex="1" parent="1">
          <mxGeometry x="-800" y="524" width="730" height="450" as="geometry" />
        </mxCell>
        <mxCell id="3o7O3v3yB-NyVa1zuSBE-13" value="当前sim已经到期 并且&lt;br&gt;sim有效期 &amp;gt; 会员有效期的数据&amp;nbsp;&lt;div&gt;&lt;div&gt;&lt;br&gt;&lt;/div&gt;&lt;/div&gt;" style="html=1;align=left;spacingLeft=2;endArrow=block;rounded=0;edgeStyle=orthogonalEdgeStyle;curved=0;rounded=0;fontFamily=Helvetica;fontSize=12;fontColor=default;" edge="1" parent="1">
          <mxGeometry relative="1" as="geometry">
            <mxPoint x="-672" y="304" as="sourcePoint" />
            <Array as="points">
              <mxPoint x="-642" y="304" />
              <mxPoint x="-642" y="352" />
              <mxPoint x="-674" y="352" />
            </Array>
            <mxPoint x="-674" y="352" as="targetPoint" />
            <mxPoint as="offset" />
          </mxGeometry>
        </mxCell>
        <mxCell id="3o7O3v3yB-NyVa1zuSBE-14" value="保号流程" style="shape=umlFrame;whiteSpace=wrap;html=1;pointerEvents=0;sketch=0;strokeColor=default;align=center;verticalAlign=middle;fontFamily=Helvetica;fontSize=12;fontColor=default;fillColor=default;" vertex="1" parent="1">
          <mxGeometry x="-800" y="201" width="730" height="311" as="geometry" />
        </mxCell>
        <mxCell id="3o7O3v3yB-NyVa1zuSBE-15" value="" style="html=1;points=[];perimeter=orthogonalPerimeter;outlineConnect=0;targetShapes=umlLifeline;portConstraint=eastwest;newEdgeStyle={&quot;edgeStyle&quot;:&quot;elbowEdgeStyle&quot;,&quot;elbow&quot;:&quot;vertical&quot;,&quot;curved&quot;:0,&quot;rounded&quot;:0};" vertex="1" parent="1">
          <mxGeometry x="-398" y="364" width="10" height="70" as="geometry" />
        </mxCell>
        <mxCell id="3o7O3v3yB-NyVa1zuSBE-16" value="" style="endArrow=classic;html=1;rounded=0;" edge="1" parent="1">
          <mxGeometry width="50" height="50" relative="1" as="geometry">
            <mxPoint x="-671" y="384.1700000000001" as="sourcePoint" />
            <mxPoint x="-401" y="384" as="targetPoint" />
          </mxGeometry>
        </mxCell>
        <mxCell id="3o7O3v3yB-NyVa1zuSBE-17" value="&lt;div style=&quot;text-align: left;&quot;&gt;&lt;span style=&quot;font-size: 12px;&quot;&gt;更改sim卡为【等待&lt;/span&gt;&lt;span style=&quot;font-size: 12px;&quot;&gt;保号&lt;/span&gt;&lt;span style=&quot;font-size: 12px;&quot;&gt;】状态&lt;/span&gt;&lt;/div&gt;" style="edgeLabel;html=1;align=center;verticalAlign=middle;resizable=0;points=[];" vertex="1" connectable="0" parent="3o7O3v3yB-NyVa1zuSBE-16">
          <mxGeometry x="-0.1703" y="2" relative="1" as="geometry">
            <mxPoint x="25" as="offset" />
          </mxGeometry>
        </mxCell>
        <mxCell id="3o7O3v3yB-NyVa1zuSBE-18" value="返回" style="html=1;verticalAlign=bottom;endArrow=open;dashed=1;endSize=8;edgeStyle=elbowEdgeStyle;elbow=vertical;curved=0;rounded=0;" edge="1" parent="1">
          <mxGeometry relative="1" as="geometry">
            <mxPoint x="-671" y="423.3299999999999" as="targetPoint" />
            <Array as="points" />
            <mxPoint x="-401" y="423" as="sourcePoint" />
            <mxPoint as="offset" />
          </mxGeometry>
        </mxCell>
        <mxCell id="3o7O3v3yB-NyVa1zuSBE-19" value="&lt;div&gt;&lt;div&gt;人工导出需要保号的数据到Excel中；&lt;/div&gt;&lt;/div&gt;&lt;div&gt;或邮件？ Excel格式？需要进一步与沟通需求&lt;/div&gt;" style="html=1;align=left;spacingLeft=2;endArrow=block;rounded=0;edgeStyle=orthogonalEdgeStyle;curved=0;rounded=0;fontFamily=Helvetica;fontSize=12;fontColor=default;" edge="1" parent="1">
          <mxGeometry relative="1" as="geometry">
            <mxPoint x="-672" y="451" as="sourcePoint" />
            <Array as="points">
              <mxPoint x="-642" y="451" />
              <mxPoint x="-642" y="499" />
              <mxPoint x="-674" y="499" />
            </Array>
            <mxPoint x="-674" y="499" as="targetPoint" />
            <mxPoint as="offset" />
          </mxGeometry>
        </mxCell>
        <mxCell id="Os20RsgYe2a4jPq89aU4-47" value="" style="html=1;points=[];perimeter=orthogonalPerimeter;outlineConnect=0;targetShapes=umlLifeline;portConstraint=eastwest;newEdgeStyle={&quot;edgeStyle&quot;:&quot;elbowEdgeStyle&quot;,&quot;elbow&quot;:&quot;vertical&quot;,&quot;curved&quot;:0,&quot;rounded&quot;:0};" parent="1" vertex="1">
          <mxGeometry x="-162" y="611" width="10" height="58" as="geometry" />
        </mxCell>
        <mxCell id="DhiFU4VPr3CxJKBpV4ug-12" value="" style="html=1;points=[];perimeter=orthogonalPerimeter;outlineConnect=0;targetShapes=umlLifeline;portConstraint=eastwest;newEdgeStyle={&quot;edgeStyle&quot;:&quot;elbowEdgeStyle&quot;,&quot;elbow&quot;:&quot;vertical&quot;,&quot;curved&quot;:0,&quot;rounded&quot;:0};" parent="1" vertex="1">
          <mxGeometry x="-396" y="675" width="10" height="50" as="geometry" />
        </mxCell>
        <mxCell id="Os20RsgYe2a4jPq89aU4-5" value="" style="html=1;points=[];perimeter=orthogonalPerimeter;outlineConnect=0;targetShapes=umlLifeline;portConstraint=eastwest;newEdgeStyle={&quot;edgeStyle&quot;:&quot;elbowEdgeStyle&quot;,&quot;elbow&quot;:&quot;vertical&quot;,&quot;curved&quot;:0,&quot;rounded&quot;:0};" parent="1" vertex="1">
          <mxGeometry x="-682" y="542" width="10" height="428" as="geometry" />
        </mxCell>
        <mxCell id="Os20RsgYe2a4jPq89aU4-24" value="定时任务：&lt;br&gt;时间：每天凌晨3点&lt;br&gt;动作：获取sim卡流量、状态" style="html=1;align=left;spacingLeft=2;endArrow=block;rounded=0;edgeStyle=orthogonalEdgeStyle;curved=0;rounded=0;fontFamily=Helvetica;fontSize=12;fontColor=default;" parent="1" target="Os20RsgYe2a4jPq89aU4-5" edge="1">
          <mxGeometry relative="1" as="geometry">
            <mxPoint x="-670" y="550" as="sourcePoint" />
            <Array as="points">
              <mxPoint x="-640" y="550" />
              <mxPoint x="-640" y="610" />
            </Array>
            <mxPoint x="-670" y="580" as="targetPoint" />
          </mxGeometry>
        </mxCell>
        <mxCell id="EFkXknBgCxwWWoDzn0F4-1" value="" style="endArrow=classic;html=1;rounded=0;" parent="1" edge="1">
          <mxGeometry width="50" height="50" relative="1" as="geometry">
            <mxPoint x="-667" y="681" as="sourcePoint" />
            <mxPoint x="-398" y="681" as="targetPoint" />
          </mxGeometry>
        </mxCell>
        <mxCell id="EFkXknBgCxwWWoDzn0F4-2" value="更新数据sim卡信息&lt;br&gt;1、保存流量记录表" style="edgeLabel;html=1;align=center;verticalAlign=middle;resizable=0;points=[];" parent="EFkXknBgCxwWWoDzn0F4-1" vertex="1" connectable="0">
          <mxGeometry x="-0.1703" y="2" relative="1" as="geometry">
            <mxPoint x="25" as="offset" />
          </mxGeometry>
        </mxCell>
        <mxCell id="DhiFU4VPr3CxJKBpV4ug-9" value="" style="endArrow=classic;html=1;rounded=0;" parent="1" edge="1">
          <mxGeometry width="50" height="50" relative="1" as="geometry">
            <mxPoint x="-667" y="630" as="sourcePoint" />
            <mxPoint x="-167" y="630" as="targetPoint" />
          </mxGeometry>
        </mxCell>
        <mxCell id="DhiFU4VPr3CxJKBpV4ug-10" value="&lt;div style=&quot;text-align: left;&quot;&gt;&lt;span style=&quot;font-size: 12px;&quot;&gt;api: 批量正常计费期sim卡流量&lt;/span&gt;&lt;/div&gt;" style="edgeLabel;html=1;align=center;verticalAlign=middle;resizable=0;points=[];" parent="DhiFU4VPr3CxJKBpV4ug-9" vertex="1" connectable="0">
          <mxGeometry x="-0.1703" y="2" relative="1" as="geometry">
            <mxPoint x="25" as="offset" />
          </mxGeometry>
        </mxCell>
        <mxCell id="DhiFU4VPr3CxJKBpV4ug-11" value="返回" style="html=1;verticalAlign=bottom;endArrow=open;dashed=1;endSize=8;edgeStyle=elbowEdgeStyle;elbow=vertical;curved=0;rounded=0;" parent="1" edge="1">
          <mxGeometry relative="1" as="geometry">
            <mxPoint x="-667" y="655" as="targetPoint" />
            <Array as="points" />
            <mxPoint x="-166.5" y="655.0344827586207" as="sourcePoint" />
            <mxPoint as="offset" />
          </mxGeometry>
        </mxCell>
        <mxCell id="DhiFU4VPr3CxJKBpV4ug-15" value="返回" style="html=1;verticalAlign=bottom;endArrow=open;dashed=1;endSize=8;edgeStyle=elbowEdgeStyle;elbow=vertical;curved=0;rounded=0;" parent="1" edge="1">
          <mxGeometry relative="1" as="geometry">
            <mxPoint x="-667" y="721" as="targetPoint" />
            <Array as="points" />
            <mxPoint x="-397" y="721" as="sourcePoint" />
            <mxPoint as="offset" />
          </mxGeometry>
        </mxCell>
        <mxCell id="3o7O3v3yB-NyVa1zuSBE-21" value="" style="html=1;points=[];perimeter=orthogonalPerimeter;outlineConnect=0;targetShapes=umlLifeline;portConstraint=eastwest;newEdgeStyle={&quot;edgeStyle&quot;:&quot;elbowEdgeStyle&quot;,&quot;elbow&quot;:&quot;vertical&quot;,&quot;curved&quot;:0,&quot;rounded&quot;:0};" vertex="1" parent="1">
          <mxGeometry x="-676" y="616" width="10" height="194" as="geometry" />
        </mxCell>
        <mxCell id="3o7O3v3yB-NyVa1zuSBE-22" value="" style="html=1;points=[];perimeter=orthogonalPerimeter;outlineConnect=0;targetShapes=umlLifeline;portConstraint=eastwest;newEdgeStyle={&quot;edgeStyle&quot;:&quot;elbowEdgeStyle&quot;,&quot;elbow&quot;:&quot;vertical&quot;,&quot;curved&quot;:0,&quot;rounded&quot;:0};" vertex="1" parent="1">
          <mxGeometry x="-676" y="826" width="10" height="131" as="geometry" />
        </mxCell>
      </root>
    </mxGraphModel>
  </diagram>
</mxfile>
